# xmcd
#
# Track frame offsets:
#	151
#	13840
#	31836
#	46339
#	61122
#	78478
#	92641
#	110936
#	130620
#	147938
#	167447
#	181862
#	199532
#	221891
#
# Disc length: 3156 seconds
#
# Revision: 0
# Processed by: cddbd v1.4PL0 Copyright (c) Steve Scherf et al.
# Submitted via: dBpowerAMP V4.0
#
DISCID=ba0c520e
DTITLE=Rosa Maria - Minha história
DYEAR=1900
DGENRE=
TTITLE0=The more I see You
TTITLE1=Rosa in blues
TTITLE2=Califórnia dreamin´
TTITLE3=Molambo
TTITLE4=Cantei um blues
TTITLE5=Monday, monday
TTITLE6=Meditation(Meditação)
TTITLE7=Sophisticated lady
TTITLE8=When a man loves a woman
TTITLE9=Light my fire
TTITLE10=Smoke gets in your eyes
TTITLE11=A whiter shade of pale
TTITLE12=Can´t take my eyes off of you
TTITLE13=Black-tie
EXTD=
EXTT0=
EXTT1=
EXTT2=
EXTT3=
EXTT4=
EXTT5=
EXTT6=
EXTT7=
EXTT8=
EXTT9=
EXTT10=
EXTT11=
EXTT12=
EXTT13=
PLAYORDER=
